<svg width="32" height="32" viewBox="0 0 32 32" fill="none" xmlns="http://www.w3.org/2000/svg">
<g clip-path="url(#clip0_574_4604)">
<path d="M27.1959 15.2557C26.2421 13.9231 25.0835 12.9757 24.0987 12.6318C19.3931 10.9801 17.376 12.4214 16.749 11.6718C16.5683 11.4816 16.4514 11.2399 16.4145 10.9801C16.3777 10.7204 16.4227 10.4556 16.5434 10.2227L14.0183 11.8602L11.2798 13.1112C11.5417 13.1342 11.7899 13.2386 11.9896 13.4096C12.1893 13.5806 12.3305 13.8098 12.3936 14.0651C12.6777 15.0028 10.3789 15.9224 9.25296 20.7904C8.95677 22.0681 9.31563 24.0936 10.3626 25.9743C12.3309 29.4928 16.695 32.5454 23.7082 29.501C30.7456 24.7584 29.665 18.7083 27.1959 15.2557ZM10.6628 24.073C8.99665 18.4969 12.9757 15.2919 13.0928 14.4186C13.2099 13.5452 12.5251 12.6786 12.5251 12.6786L15.238 11.19C15.4471 11.7823 15.8577 12.2823 16.3981 12.6025C17.1933 12.954 22.0223 11.2969 25.8486 15.7132C29.675 20.1296 27.2044 25.1235 22.7193 28.0236C17.8731 30.2731 12.3353 29.6601 10.6565 24.0621L10.6628 24.073Z" fill="url(#paint0_linear_574_4604)"/>
<path d="M7.36697 10.798C7.32063 11.2811 8.74625 13.0693 9.36198 13.4128C10.771 14.1719 17.2507 10.1445 17.5452 9.09105C17.7607 8.28715 16.7046 6.004 16.3786 5.75049C16.0527 5.49698 7.36697 10.798 7.36697 10.798Z" fill="url(#paint1_linear_574_4604)"/>
<path d="M7.36683 10.7981C7.60198 11.735 17.0296 7.2482 16.3748 5.75264C15.7201 4.25708 6.85292 8.73099 7.36683 10.7981Z" fill="#EBC3D3"/>
<g style="mix-blend-mode:multiply" opacity="0.5">
<path d="M8.74881 9.94673C8.9081 10.5925 15.2472 7.33066 14.8016 6.30654C14.3559 5.28243 8.41295 8.52431 8.74881 9.94673Z" fill="#9A376D"/>
</g>
<g style="mix-blend-mode:multiply" opacity="0.3">
<path d="M8.92185 10.8176C7.87093 11.0991 9.07019 12.2852 10.0189 12.8102C10.9675 13.3352 16.8276 10.0926 16.7011 8.61242C16.5746 7.13224 16.1218 7.55866 13.8422 8.70492C12.2388 9.49188 10.5966 10.197 8.92185 10.8176Z" fill="#9A376D"/>
</g>
<path opacity="0.45" d="M9.75282 10.5418C9.38776 10.6409 11.0359 11.8057 12.5915 11.7763C14.1472 11.747 15.6214 9.32322 15.3199 8.00232C15.3199 8.00232 11.782 9.70999 9.75282 10.5418Z" fill="url(#paint2_linear_574_4604)"/>
<path d="M12.6323 8.40849C10.933 9.55947 14.0415 8.25987 14.8847 7.59343C15.728 6.92699 16.5295 5.91088 16.2885 5.75397C16.1373 5.65193 14.8176 6.78766 13.9988 7.45452C13.5714 7.81098 13.1142 8.13014 12.6323 8.40849Z" fill="white"/>
<path d="M17.0619 7.81691C16.7265 7.9086 16.5292 9.2651 16.341 9.86397C16.1529 10.4628 17.3111 9.45922 17.4264 8.77621C17.5417 8.09319 17.2358 7.76504 17.0619 7.81691Z" fill="white"/>
<path d="M7.47083 10.4566C7.36703 10.798 7.75246 10.9444 8.24564 10.815C8.73882 10.6856 8.03411 10.1459 7.84241 10.1838C7.69556 10.2383 7.56686 10.3328 7.47083 10.4566Z" fill="white"/>
<g style="mix-blend-mode:soft-light">
<path d="M11.5264 13.0757C10.7569 13.3404 9.60651 11.6504 9.69935 11.1891C9.79219 10.7278 13.7234 11.5257 13.5283 11.9781C13.3332 12.4305 11.5264 13.0757 11.5264 13.0757Z" fill="white"/>
</g>
<g style="mix-blend-mode:soft-light">
<path d="M7.82067 11.2982C7.84695 11.5791 8.68614 12.6963 9.16394 13.0951C9.2944 13.2205 9.45605 13.3087 9.6321 13.3504C9.80814 13.3922 9.99217 13.386 10.165 13.3326C10.3171 13.2933 9.04635 12.3282 8.51949 11.8024C7.80197 11.0808 7.80197 11.0808 7.82067 11.2982Z" fill="white"/>
</g>
<g style="mix-blend-mode:multiply" opacity="0.3">
<path d="M7.68032 9.77735C7.35537 10.4503 7.26752 10.7438 9.14729 9.02262C11.0271 7.30148 13.6761 6.09727 14.3385 6.0255C15.0008 5.95373 15.141 6.53289 16.021 5.78703C16.9009 5.04118 13.9816 5.5083 11.1726 7.09124C8.36365 8.67417 7.68032 9.77735 7.68032 9.77735Z" fill="#9A376D"/>
</g>
<path d="M9.33707 9.95652C8.05702 8.21366 6.68669 6.53894 5.23171 4.93922C5.23171 4.93922 9.88616 -0.097282 14.271 1.41921C14.271 1.41921 13.8684 4.56394 14.8241 6.77403C14.8241 6.77403 13.0849 8.57901 9.33707 9.95652Z" fill="url(#paint3_linear_574_4604)"/>
<path d="M14.2408 1.66987C13.6611 4.02861 4.72639 5.87188 5.1995 4.74931C5.67262 3.62673 7.03112 2.63369 8.56334 1.89953C8.81359 1.91678 9.06472 1.88248 9.30118 1.79875C9.47638 1.68825 9.63278 1.55043 9.76444 1.39052L9.93205 1.32773C9.93205 1.32773 10.2678 2.02698 10.6302 1.09938C12.7177 0.486316 14.5297 0.522563 14.2408 1.66987Z" fill="#FF7A00"/>
<g style="mix-blend-mode:multiply" opacity="0.5">
<path d="M10.145 9.64063C10.145 9.64063 7.31384 5.64479 7.40926 4.94414C7.50468 4.24348 9.64006 2.20003 11.6182 1.48995C13.5963 0.779877 14.2696 1.51725 14.2696 1.51725C13.7578 1.33447 13.2105 1.27302 12.6709 1.33776C12.1313 1.40251 11.6141 1.59167 11.1601 1.89034C9.51131 2.91022 7.76376 4.22982 7.91288 5.05139C8.06201 5.87295 10.6243 9.43672 10.6243 9.43672L10.145 9.64063Z" fill="#B10053"/>
</g>
<g style="mix-blend-mode:multiply" opacity="0.5">
<path d="M11.4526 9.05554C11.4526 9.05554 9.40468 5.55883 9.53274 4.46074C9.66081 3.36264 14.0737 2.05255 14.0737 2.05255C14.0737 2.05255 10.1922 3.49271 9.80089 4.37873C9.40962 5.26475 12.0377 8.73228 12.0377 8.73228L11.4526 9.05554Z" fill="#B10053"/>
</g>
<g style="mix-blend-mode:multiply" opacity="0.5">
<path d="M13.0082 8.14303C13.0082 8.14303 11.6016 6.16905 12.4651 4.68028C13.3287 3.19152 14.2306 4.09786 14.2306 4.09786L14.3116 4.85195C14.3116 4.85195 13.4081 3.91747 12.6697 4.9505C11.9313 5.98354 13.2381 8.02 13.2381 8.02L13.0082 8.14303Z" fill="#B10053"/>
</g>
<path d="M9.05981 7.12202C9.05981 7.12202 7.59956 5.63526 7.42386 4.93582C7.24817 4.23637 10.5544 2.27895 10.5544 2.27895C10.5544 2.27895 8.18926 3.88233 7.92868 4.84337C7.73143 5.51059 9.05981 7.12202 9.05981 7.12202Z" fill="#97001A"/>
<path d="M10.311 6.10339C10.311 6.10339 9.32833 4.72921 9.62534 4.21797C9.92234 3.70673 11.4455 3.16708 11.4455 3.16708C11.4455 3.16708 10.0077 3.77882 9.79021 4.36061C9.57278 4.94241 10.311 6.10339 10.311 6.10339Z" fill="#97001A"/>
<g style="mix-blend-mode:soft-light" opacity="0.5">
<path d="M5.43263 4.52232C5.08053 4.83725 6.71051 4.97859 7.06674 4.88941C7.42297 4.80023 8.14034 3.73079 8.65164 3.33851C9.16295 2.94623 5.91969 4.07124 5.43263 4.52232Z" fill="white"/>
</g>
<g style="mix-blend-mode:soft-light" opacity="0.5">
<path d="M7.95573 4.73053C8.4374 4.70303 8.91493 4.62577 9.3807 4.49999C9.5053 4.37951 9.82808 3.92134 10.0204 3.67439C10.2128 3.42743 8.88235 3.35097 7.95573 4.73053Z" fill="white"/>
</g>
<g style="mix-blend-mode:soft-light" opacity="0.5">
<path d="M10.0003 4.31211C10.9364 3.98966 11.8513 3.60893 12.7398 3.17214C13.1257 2.99039 13.4735 2.73687 13.7647 2.42512C13.7647 2.42512 11.4012 2.77038 10.0003 4.31211Z" fill="white"/>
</g>
<path d="M9.7642 4.61829C9.90769 4.54076 10.0356 4.4373 10.1414 4.31316C10.1652 4.26433 10.176 4.21016 10.1728 4.15591C10.1695 4.10166 10.1523 4.04917 10.1228 4.00354C9.93194 4.15758 9.80433 4.37635 9.7642 4.61829Z" fill="#FFA457"/>
<path d="M7.92222 5.21105C7.92222 5.21105 8.23191 4.97401 8.17066 4.80066C8.1094 4.62731 8.0104 4.64078 8.0104 4.64078C8.0104 4.64078 7.84519 4.77499 7.92222 5.21105Z" fill="#FFA457"/>
<g style="mix-blend-mode:multiply" opacity="0.3">
<path d="M12.1137 8.58657C12.1137 8.58657 10.2949 5.8313 10.1289 5.19908C9.96284 4.56685 11.5804 3.90478 12.5882 3.43938C13.5961 2.97398 12.4244 3.53396 12.1853 4.97771C11.9461 6.42147 12.8192 7.88321 12.767 8.11233C12.7149 8.34145 12.1137 8.58657 12.1137 8.58657Z" fill="#D42F55"/>
</g>
<g style="mix-blend-mode:multiply" opacity="0.3">
<path d="M8.35829 5.06608C8.22585 5.18138 9.15233 7.28211 10.2249 8.4588C11.2974 9.6355 10.9628 8.39191 10.8692 8.08679C10.7756 7.78167 9.5137 5.30182 9.47537 5.00845C9.43705 4.71508 8.35829 5.06608 8.35829 5.06608Z" fill="#D42F55"/>
</g>
<g style="mix-blend-mode:multiply" opacity="0.3">
<path d="M7.28482 5.04019C7.20706 4.9055 5.73521 5.26503 5.77863 5.29821C5.82205 5.33138 8.68771 8.86564 9.11061 9.22821C9.53351 9.59078 8.41026 7.44348 7.28482 5.04019Z" fill="#D42F55"/>
</g>
<path d="M12.7329 7.01066C12.7329 7.01066 12.4172 5.89212 12.6021 5.27085C12.6353 5.10763 12.7065 4.95453 12.8099 4.82398C12.9133 4.69343 13.0461 4.58911 13.1973 4.51948C13.1973 4.51948 12.7366 4.5622 12.4996 5.32031C12.3897 5.89409 12.4717 6.4881 12.7329 7.01066Z" fill="#FF6500"/>
<path d="M11.2166 7.57069C11.2166 7.57069 10.224 5.71688 10.0354 5.27245C9.84671 4.82803 9.76444 4.61827 9.76444 4.61827C9.76444 4.61827 9.6804 5.41428 11.2166 7.57069Z" fill="#FF6500"/>
<path d="M9.93235 1.32748L10.3951 1.50687C10.3951 1.50687 10.1581 1.79417 9.93235 1.32748Z" fill="#E23100"/>
<path d="M8.5636 1.89923C8.99896 1.82823 9.41088 1.65366 9.7647 1.39022C9.64631 1.5934 9.46533 1.75278 9.24882 1.84454C9.03231 1.93629 8.79192 1.95548 8.5636 1.89923Z" fill="#E23100"/>
<path d="M13.8721 1.35848C14.0055 1.47394 14.122 1.60771 14.218 1.7558C14.2237 1.87641 14.2221 1.99725 14.2133 2.11767C14.2133 2.11767 14.2754 1.55273 14.2695 1.5173C14.2636 1.48187 13.8721 1.35848 13.8721 1.35848Z" fill="#97001A"/>
<g style="mix-blend-mode:multiply" opacity="0.8">
<path d="M8.85449 9.28882C8.85449 9.28882 9.51582 9.92145 12.09 8.53717C14.6642 7.15288 14.6394 6.26923 14.6394 6.26923L14.8314 6.76996C14.8314 6.76996 13.0884 8.63543 9.33812 9.94153L8.85449 9.28882Z" fill="#D42F55"/>
</g>
<path opacity="0.5" d="M22.7237 28.0309C17.8753 30.2767 12.3354 29.6601 10.6588 24.0657C10.2689 22.8291 10.1538 21.5223 10.3216 20.2366C10.7733 17.0004 12.9941 15.0629 13.0877 14.4264C13.2148 13.5619 12.52 12.6864 12.52 12.6864L15.233 11.1978C15.442 11.7901 15.8527 12.2901 16.3931 12.6103C17.0064 12.8823 20.0269 11.9684 23.1327 13.573C24.1671 14.1143 25.0868 14.8509 25.8411 15.7419C29.6772 20.1332 27.226 25.1354 22.7237 28.0309Z" fill="url(#paint4_radial_574_4604)"/>
<path d="M22.7236 28.0309C17.8753 30.2767 12.3354 29.6601 10.6587 24.0657C10.2689 22.8291 10.1538 21.5223 10.3216 20.2366L18.049 18.9253L23.1285 13.5657C24.1628 14.107 25.0825 14.8436 25.8369 15.7346C29.6772 20.1332 27.226 25.1353 22.7236 28.0309Z" fill="url(#paint5_linear_574_4604)"/>
<g style="mix-blend-mode:multiply" opacity="0.2">
<path d="M10.285 22.1071C10.3351 20.2434 15.278 20.8601 19.8486 22.9926C24.4193 25.125 24.4957 21.5667 24.4122 18.7318C24.3286 15.8968 26.8031 21.0403 26.1684 23.4551C25.5337 25.8698 28.378 21.9269 27.4911 18.6336C26.6041 15.3403 23.1378 13.5653 23.1378 13.5653C23.1378 13.5653 24.9316 15.2429 24.0028 16.4927C23.074 17.7424 16.8427 19.6946 14.1646 19.974C11.4864 20.2534 10.3351 20.2434 10.3351 20.2434C10.25 20.8609 10.2332 21.4859 10.285 22.1071Z" fill="#9A7AFF"/>
</g>
<path d="M10.6418 19.7992C8.57679 20.7875 15.3412 20.8768 21.0683 18.4633C26.7955 16.0499 23.6204 13.6359 22.4769 13.2526C21.3333 12.8692 18.2997 15.6351 15.6397 17.3165C14.0419 18.2746 12.3707 19.1048 10.6418 19.7992Z" fill="url(#paint6_linear_574_4604)"/>
<g style="mix-blend-mode:soft-light" opacity="0.3">
<path d="M14.4787 28.6312C9.73499 24.6183 20.5498 26.6453 23.3457 25.7543C26.1416 24.8633 26.9057 23.631 26.9057 23.631C26.9057 23.631 24.9658 27.2993 21.4842 28.5328C18.0027 29.7662 14.4787 28.6312 14.4787 28.6312Z" fill="white"/>
</g>
<g style="mix-blend-mode:multiply" opacity="0.3">
<path d="M11.2198 25.5086C11.2198 25.5086 15.3671 31.8511 22.5489 27.9134C29.7307 23.9757 26.8449 17.0942 26.8449 17.0942C26.8449 17.0942 30.7535 23.822 22.7977 28.1678C14.8419 32.5135 11.2198 25.5086 11.2198 25.5086Z" fill="#9A3792"/>
</g>
<path d="M24.6201 28.4746C23.7914 28.6618 26.5857 25.6748 27.6537 23.1361C28.7217 20.5974 29.3823 25.6426 24.6201 28.4746Z" fill="white"/>
<path d="M9.65832 23.6193C10.2695 25.174 10.1166 20.6803 10.2072 19.3659C10.2978 18.0516 8.66897 21.0986 9.65832 23.6193Z" fill="white"/>
<path d="M10.3498 18.798C10.0943 18.9019 10.2867 17.9657 10.5057 17.8489C10.7246 17.7322 10.6693 18.6621 10.3498 18.798Z" fill="white"/>
<path d="M22.7921 12.6386C22.4533 12.8925 24.522 14.0376 25.6391 15.1401C26.7561 16.2426 26.632 14.96 26.0154 14.0685C25.3988 13.1771 23.3871 12.198 22.7921 12.6386Z" fill="white"/>
<g style="mix-blend-mode:multiply" opacity="0.5">
<path d="M12.2054 14.7562C13.0843 13.8993 12.9572 15.3269 15.316 14.7465C17.6748 14.1662 17.3668 12.6743 16.7836 11.8995C16.6136 11.6582 16.5019 11.3808 16.4573 11.089C16.4126 10.7973 16.4363 10.4992 16.5263 10.2181C14.9695 11.504 13.1836 12.4841 11.2627 13.1066C11.2627 13.1066 12.5691 13.5366 12.2054 14.7562Z" fill="#9A376D"/>
</g>
<path style="mix-blend-mode:screen" d="M15.6239 28.5382C15.6239 28.5382 11.4724 28.0228 10.6988 22.7904C10.1336 18.9279 12.0125 16.6588 12.0125 16.6588C12.0125 16.6588 12.929 16.0519 15.0357 19.6167C17.1423 23.1814 17.3017 27.72 15.6239 28.5382Z" fill="url(#paint7_linear_574_4604)"/>
<path d="M12.3997 20.4734C15.0851 20.4025 17.7439 19.9216 20.284 19.0473C24.7634 17.558 24.41 15.4662 24.41 15.4662C24.41 15.4662 23.9083 16.9597 20.4317 18.496C16.9552 20.0324 12.3997 20.4734 12.3997 20.4734Z" fill="#FF741F"/>
<g style="mix-blend-mode:soft-light">
<path d="M18.5471 19.5696C18.1741 19.5373 19.8396 18.6389 20.7944 18.4177C21.7491 18.1966 21.3055 18.6808 20.9536 18.8112C20.6017 18.9415 18.5471 19.5696 18.5471 19.5696Z" fill="white"/>
</g>
<g style="mix-blend-mode:multiply" opacity="0.2">
<path d="M14.7348 20.3145C13.9171 20.4031 19.2979 22.6358 21.7753 23.5304C24.2528 24.425 24.0088 20.6731 24.0635 18.9184C24.071 18.0111 24.172 17.107 24.3649 16.2204C23.3146 17.3723 22.0405 18.2978 20.6204 18.9405C18.4236 19.8351 14.7348 20.3145 14.7348 20.3145Z" fill="#DE0098"/>
</g>
<g style="mix-blend-mode:multiply" opacity="0.5">
<path d="M23.7056 29.522C16.6924 32.5663 12.3283 29.5137 10.3601 25.9953C10.5261 26.2828 14.7604 33.4488 23.3639 29.3504C32.1468 25.1678 27.1959 15.2558 27.1959 15.2558C29.6649 18.7084 30.7456 24.7585 23.7056 29.522Z" fill="#9A376D"/>
</g>
<g style="mix-blend-mode:multiply" opacity="0.2">
<path d="M15.8905 20.7102C11.5303 20.6405 14.1138 24.0222 16.5445 25.5505C18.9753 27.0788 17.1238 24.0317 18.4729 23.5101C19.822 22.9884 20.7369 24.8337 22.6255 25.0782C24.514 25.3226 21.5262 27.9747 20.0335 27.2639C18.5407 26.5531 19.9636 25.8481 20.2167 26.0175C20.4698 26.1868 22.6879 26.2119 20.6902 24.9966C18.6926 23.7812 18.6023 25.1633 18.5225 26.5636C18.4427 27.9639 16.4525 27.8461 13.4639 25.4944C10.4752 23.1426 10.2292 21.0519 10.8089 20.6687C11.3885 20.2855 14.4949 20.5209 18.1047 19.8541C21.7144 19.1874 18.6114 21.707 15.8905 20.7102Z" fill="#FFC827"/>
</g>
<g style="mix-blend-mode:soft-light">
<path d="M19.8338 29.0538C17.0115 28.6883 20.5292 26.8952 23.9166 25.7258C27.3041 24.5563 24.3629 27.8271 19.8338 29.0538Z" fill="#FF83FF"/>
</g>
<path d="M18.3508 13.5381C16.9668 14.672 19.6826 16.6183 21.8531 16.8552C24.0237 17.0922 23.046 14.2638 21.8569 13.499C20.6679 12.7342 18.7149 13.2356 18.3508 13.5381Z" fill="white"/>
<path d="M12.8328 17.0198C12.3774 16.147 11.475 17.93 11.6873 18.55C11.8997 19.17 13.2477 17.8141 12.8328 17.0198Z" fill="white"/>
<g style="mix-blend-mode:soft-light">
<path d="M17.7527 12.1409C17.3693 12.469 19.6836 12.1813 21.0869 12.4681C22.4902 12.7548 20.003 11.3222 17.7527 12.1409Z" fill="white"/>
</g>
<g style="mix-blend-mode:soft-light">
<path d="M13.4364 28.0535C11.1213 26.8516 14.7074 30.7174 18.3858 30.5983C22.0642 30.4792 23.7072 28.2638 23.7016 27.9515C23.6961 27.6392 20.9194 29.2278 18.4951 29.5013C16.0709 29.7749 13.4364 28.0535 13.4364 28.0535Z" fill="#75FFFF"/>
</g>
<g style="mix-blend-mode:multiply" opacity="0.4">
<path d="M24.2344 16.8685C24.5085 16.0909 24.5828 15.2569 24.4504 14.4431C24.4516 14.3696 27.1544 16.2262 27.2623 18.683C27.3702 21.1398 27.0944 21.5952 26.5306 21.081C25.9667 20.5668 25.2096 17.3975 24.4405 17.8561C23.6714 18.3147 24.5611 21.7473 23.4122 22.6241C22.2633 23.501 21.2884 21.535 21.5398 20.1376C21.7911 18.7402 22.3182 20.4939 22.8102 19.7487C23.3022 19.0036 22.8933 18.0262 20.1493 19.3435C17.4054 20.6607 19.6713 22.0464 20.2716 20.8164C20.872 19.5864 21.3328 22.8393 20.9919 23.0896C20.651 23.3398 19.5087 22.6645 16.8751 21.5834C14.2414 20.5023 13.6081 20.9018 13.4084 22.0607C13.2086 23.2196 16.464 25.2766 15.531 25.9221C14.5979 26.5676 12.4052 24.9892 11.3464 23.1299C10.2875 21.2707 10.2096 21.1021 10.5726 20.7808C10.9356 20.4596 15.7716 20.8323 19.4465 19.3367C23.1213 17.8412 24.2344 16.8685 24.2344 16.8685Z" fill="#DE3500"/>
</g>
<path d="M12.2447 25.0138C11.2661 24.8993 12.2207 26.6537 12.8581 26.8245C13.4955 26.9953 13.1399 25.1183 12.2447 25.0138Z" fill="white"/>
<g style="mix-blend-mode:soft-light" opacity="0.6">
<path d="M18.4766 12.1501C18.1496 12.4748 18.6137 12.6145 18.9122 12.7868C19.2107 12.9591 19.316 12.4857 19.0879 12.2C18.8598 11.9142 18.4766 12.1501 18.4766 12.1501Z" fill="#FFB192"/>
</g>
</g>
<defs>
<linearGradient id="paint0_linear_574_4604" x1="23.7002" y1="29.5141" x2="13.8857" y2="11.6543" gradientUnits="userSpaceOnUse">
<stop stop-color="#E8E5ED"/>
<stop offset="0.05" stop-color="#E5DDEA"/>
<stop offset="0.28" stop-color="#DABBDC"/>
<stop offset="0.46" stop-color="#D3A7D4"/>
<stop offset="0.59" stop-color="#D19FD1"/>
<stop offset="0.64" stop-color="#BE92C3"/>
<stop offset="0.72" stop-color="#A57FB0"/>
<stop offset="0.81" stop-color="#9272A3"/>
<stop offset="0.9" stop-color="#886B9B"/>
<stop offset="1" stop-color="#846898"/>
</linearGradient>
<linearGradient id="paint1_linear_574_4604" x1="8.21995" y1="12.5423" x2="17.4003" y2="7.49746" gradientUnits="userSpaceOnUse">
<stop stop-color="#9082A9"/>
<stop offset="0.22" stop-color="#9386AB"/>
<stop offset="0.42" stop-color="#9D90B3"/>
<stop offset="0.6" stop-color="#ADA3C0"/>
<stop offset="0.79" stop-color="#C4BCD1"/>
<stop offset="0.96" stop-color="#E1DDE8"/>
<stop offset="1" stop-color="#E8E5ED"/>
</linearGradient>
<linearGradient id="paint2_linear_574_4604" x1="10.3105" y1="11.7292" x2="15.7296" y2="8.75128" gradientUnits="userSpaceOnUse">
<stop stop-color="#A71100"/>
<stop offset="0.39" stop-color="#D83303"/>
<stop offset="1" stop-color="#EC5C11"/>
</linearGradient>
<linearGradient id="paint3_linear_574_4604" x1="6.64982" y1="7.52938" x2="15.0787" y2="2.89749" gradientUnits="userSpaceOnUse">
<stop stop-color="#A71100"/>
<stop offset="0.39" stop-color="#D83303"/>
<stop offset="1" stop-color="#EC5C11"/>
</linearGradient>
<radialGradient id="paint4_radial_574_4604" cx="0" cy="0" r="1" gradientUnits="userSpaceOnUse" gradientTransform="translate(19.3659 21.8186) rotate(-28.79) scale(9.60509 9.60509)">
<stop stop-color="#E8E5ED"/>
<stop offset="0.14" stop-color="#E3DDE3"/>
<stop offset="0.42" stop-color="#DBD1D5"/>
<stop offset="0.66" stop-color="#D8CDD0"/>
<stop offset="0.68" stop-color="#D4C5CE"/>
<stop offset="0.75" stop-color="#C7ACC9"/>
<stop offset="0.83" stop-color="#BE99C5"/>
<stop offset="0.91" stop-color="#B98FC3"/>
<stop offset="1" stop-color="#B78BC2"/>
</radialGradient>
<linearGradient id="paint5_linear_574_4604" x1="22.7183" y1="28.0151" x2="16.556" y2="16.8012" gradientUnits="userSpaceOnUse">
<stop stop-color="#FCFF7E"/>
<stop offset="0.32" stop-color="#D6920F"/>
<stop offset="1" stop-color="#C04A08"/>
</linearGradient>
<linearGradient id="paint6_linear_574_4604" x1="11.0428" y1="21.5718" x2="24.0582" y2="14.4195" gradientUnits="userSpaceOnUse">
<stop stop-color="#FF8227"/>
<stop offset="1" stop-color="#CC5D2D"/>
</linearGradient>
<linearGradient id="paint7_linear_574_4604" x1="10.8537" y1="24.2133" x2="16.0186" y2="21.375" gradientUnits="userSpaceOnUse">
<stop offset="0.02" stop-color="#008DFE"/>
<stop offset="1"/>
</linearGradient>
<clipPath id="clip0_574_4604">
<rect width="32" height="32" fill="white"/>
</clipPath>
</defs>
</svg>
