<svg width="32" height="32" viewBox="0 0 32 32" fill="none" xmlns="http://www.w3.org/2000/svg">
<path d="M24.4657 15.4481C23.7104 14.3929 22.7929 13.6427 22.013 13.3704C18.2868 12.0625 16.6896 13.2037 16.1931 12.6102C16.05 12.4596 15.9574 12.2681 15.9282 12.0625C15.899 11.8568 15.9347 11.6471 16.0303 11.4627L14.0308 12.7593L11.8622 13.75C12.0696 13.7682 12.2661 13.8508 12.4243 13.9863C12.5824 14.1217 12.6943 14.3032 12.7442 14.5053C12.9692 15.2479 11.1488 15.9761 10.2572 19.8309C10.0227 20.8426 10.3068 22.4466 11.1359 23.9359C12.6945 26.722 16.1503 29.1392 21.7038 26.7285C27.2766 22.973 26.4208 18.1821 24.4657 15.4481ZM11.3736 22.4303C10.0543 18.0147 13.2051 15.4768 13.2978 14.7853C13.3906 14.0937 12.8483 13.4074 12.8483 13.4074L14.9966 12.2286C15.1621 12.6977 15.4873 13.0936 15.9152 13.3471C16.5449 13.6255 20.3688 12.3133 23.3988 15.8104C26.4287 19.3076 24.4724 23.2621 20.9208 25.5586C17.0832 27.3399 12.698 26.8545 11.3686 22.4216L11.3736 22.4303Z" fill="url(#paint0_linear_574_4760)"/>
<path d="M8.76308 11.9186C8.72639 12.3011 9.85529 13.7171 10.3429 13.9891C11.4586 14.5902 16.5925 11.3994 16.8229 10.5669C16.9935 9.93029 16.1543 8.124 15.8991 7.9216C15.6439 7.71919 8.76308 11.9186 8.76308 11.9186Z" fill="url(#paint1_linear_574_4760)"/>
<path d="M8.76335 11.9183C8.94955 12.6602 16.415 9.10725 15.8965 7.92296C15.378 6.73868 8.3564 10.2814 8.76335 11.9183Z" fill="#EBC3D3"/>
<g style="mix-blend-mode:multiply" opacity="0.5">
<path d="M9.86934 11.2373C9.99548 11.7487 15.0152 9.16577 14.6623 8.35481C14.3094 7.54385 9.58033 10.1243 9.86934 11.2373Z" fill="#9A376D"/>
</g>
<g style="mix-blend-mode:multiply" opacity="0.3">
<path d="M9.99433 11.9338C9.16214 12.1567 10.1118 13.0959 10.863 13.5116C11.6142 13.9274 16.2546 11.3597 16.1544 10.1876C16.0543 9.01548 15.6957 9.35315 13.8906 10.2608C12.6209 10.884 11.3205 11.4424 9.99433 11.9338Z" fill="#9A376D"/>
</g>
<path opacity="0.45" d="M10.6529 11.7158C10.3638 11.7943 11.6689 12.7167 12.9008 12.6934C14.1327 12.6702 15.3 10.7509 15.0612 9.70493C15.0612 9.70493 12.2597 11.0572 10.6529 11.7158Z" fill="url(#paint2_linear_574_4760)"/>
<path d="M12.9335 10.0262C11.5879 10.9376 14.0494 9.90855 14.7171 9.38082C15.3849 8.85308 16.0196 8.04846 15.8287 7.92421C15.709 7.84341 14.6639 8.74275 14.0156 9.27081C13.6772 9.55308 13.3151 9.80582 12.9335 10.0262Z" fill="white"/>
<path d="M16.441 9.55783C16.1754 9.63043 16.0192 10.7046 15.8702 11.1788C15.7212 11.653 16.6383 10.8583 16.7296 10.3175C16.8209 9.77661 16.5671 9.52341 16.441 9.55783Z" fill="white"/>
<path d="M8.84546 11.6482C8.76326 11.9186 9.06848 12.0345 9.45901 11.932C9.84954 11.8295 9.2915 11.4022 9.1397 11.4322C9.02341 11.4754 8.9215 11.5502 8.84546 11.6482Z" fill="white"/>
<g style="mix-blend-mode:soft-light">
<path d="M12.0459 13.7284C11.4366 13.9379 10.5256 12.5997 10.5991 12.2344C10.6727 11.8691 13.7856 12.501 13.6312 12.8592C13.4767 13.2175 12.0459 13.7284 12.0459 13.7284Z" fill="white"/>
</g>
<g style="mix-blend-mode:soft-light">
<path d="M9.12247 12.3141C9.14328 12.5366 9.80781 13.4213 10.1862 13.7371C10.2895 13.8364 10.4175 13.9062 10.5569 13.9393C10.6963 13.9723 10.842 13.9675 10.9789 13.9252C11.0993 13.8941 10.093 13.1298 9.67585 12.7134C9.10767 12.142 9.10767 12.142 9.12247 12.3141Z" fill="white"/>
</g>
<g style="mix-blend-mode:multiply" opacity="0.3">
<path d="M9.02302 11.1037C8.7657 11.6366 8.69613 11.869 10.1847 10.506C11.6732 9.14314 13.7709 8.18956 14.2954 8.13273C14.8199 8.07589 14.9309 8.53451 15.6277 7.94389C16.3245 7.35327 14.0128 7.72318 11.7885 8.97665C9.56412 10.2301 9.02302 11.1037 9.02302 11.1037Z" fill="#9A376D"/>
</g>
<path d="M10.3233 11.2521C9.30966 9.872 8.22455 8.54584 7.07241 7.27907C7.07241 7.27907 10.7581 3.29084 14.2303 4.4917C14.2303 4.4917 13.9115 6.98191 14.6683 8.732C14.6683 8.732 13.2911 10.1613 10.3233 11.2521Z" fill="url(#paint3_linear_574_4760)"/>
<path d="M14.2066 4.69042C13.7476 6.55823 6.67249 8.01786 7.04714 7.12893C7.42178 6.24 8.49753 5.45365 9.71084 4.87229C9.90793 4.8859 10.1057 4.85931 10.2922 4.79414C10.4321 4.70634 10.5569 4.59664 10.662 4.46922L10.7947 4.4195C10.7947 4.4195 11.0606 4.97321 11.3475 4.23867C13.0006 3.75321 14.4354 3.78191 14.2066 4.69042Z" fill="#FF7A00"/>
<g style="mix-blend-mode:multiply" opacity="0.5">
<path d="M10.9635 11.002C10.9635 11.002 8.72151 7.83786 8.81149 7.27472C8.90146 6.71157 10.578 5.10176 12.1444 4.53947C13.7108 3.97718 14.2439 4.56108 14.2439 4.56108C13.8387 4.41634 13.4053 4.36769 12.978 4.41896C12.5507 4.47022 12.1412 4.62001 11.7817 4.85652C10.476 5.66413 9.0922 6.70907 9.21029 7.35964C9.32838 8.01022 11.3574 10.8322 11.3574 10.8322L10.9635 11.002Z" fill="#B10053"/>
</g>
<g style="mix-blend-mode:multiply" opacity="0.5">
<path d="M11.999 10.5388C11.999 10.5388 10.3773 7.76991 10.4787 6.90036C10.5802 6.03082 14.0746 4.9934 14.0746 4.9934C14.0746 4.9934 11.0009 6.13381 10.6911 6.83542C10.3813 7.53703 12.4624 10.2829 12.4624 10.2829L11.999 10.5388Z" fill="#B10053"/>
</g>
<g style="mix-blend-mode:multiply" opacity="0.5">
<path d="M13.2306 9.8161C13.2306 9.8161 12.1167 8.25297 12.8006 7.07407C13.4844 5.89517 14.1986 6.61286 14.1986 6.61286L14.2627 7.21C14.2627 7.21 13.5472 6.47002 12.9625 7.28804C12.3778 8.10607 13.4127 9.71868 13.4127 9.71868L13.2306 9.8161Z" fill="#B10053"/>
</g>
<path d="M10.0927 9.01403C10.0927 9.01403 8.93636 7.83672 8.79723 7.28285C8.65811 6.72898 11.2762 5.17897 11.2762 5.17897C11.2762 5.17897 9.41575 6.45683 9.19698 7.20964C9.05232 7.73133 10.0927 9.01403 10.0927 9.01403Z" fill="#97001A"/>
<path d="M11.0951 8.20067C11.0951 8.20067 10.3169 7.1125 10.5521 6.70766C10.7873 6.30283 11.9935 5.8755 11.9935 5.8755C11.9935 5.8755 10.8549 6.35992 10.6827 6.82062C10.5105 7.28133 11.0951 8.20067 11.0951 8.20067Z" fill="#97001A"/>
<g style="mix-blend-mode:soft-light" opacity="0.5">
<path d="M7.23193 6.94856C6.95312 7.19794 8.24384 7.30986 8.52593 7.23924C8.80802 7.16863 9.37607 6.32177 9.78096 6.01114C10.1858 5.70051 7.61762 6.59136 7.23193 6.94856Z" fill="white"/>
</g>
<g style="mix-blend-mode:soft-light" opacity="0.5">
<path d="M9.22924 7.11367C9.61072 7.09249 9.98893 7.03131 10.3576 6.93111C10.4563 6.83571 10.7119 6.4729 10.8642 6.27734C11.0165 6.08179 9.963 6.02125 9.22924 7.11367Z" fill="white"/>
</g>
<g style="mix-blend-mode:soft-light" opacity="0.5">
<path d="M10.849 6.78257C11.5903 6.52723 12.3148 6.22574 13.0184 5.87987C13.3239 5.73594 13.5994 5.53519 13.8299 5.28832C13.8299 5.28832 11.9497 5.56672 10.849 6.78257Z" fill="white"/>
</g>
<path d="M10.6618 7.02492C10.7754 6.96353 10.8767 6.8816 10.9605 6.7833C10.9793 6.74463 10.9879 6.70174 10.9853 6.65878C10.9828 6.61582 10.9691 6.57425 10.9457 6.53812C10.7946 6.6601 10.6936 6.83334 10.6618 7.02492Z" fill="#FFA457"/>
<path d="M9.20334 7.49418C9.20334 7.49418 9.44858 7.30647 9.40007 7.1692C9.35157 7.03193 9.27317 7.0426 9.27317 7.0426C9.27317 7.0426 9.14235 7.14888 9.20334 7.49418Z" fill="#FFA457"/>
<g style="mix-blend-mode:multiply" opacity="0.3">
<path d="M12.5225 10.1668C12.5225 10.1668 11.0821 7.98502 10.9507 7.48438C10.8192 6.98374 12.1001 6.45947 12.8953 6.0926C13.6905 5.72574 12.7685 6.16584 12.5791 7.30909C12.3897 8.45235 13.0811 9.60986 13.0398 9.79129C12.9985 9.97272 12.5225 10.1668 12.5225 10.1668Z" fill="#D42F55"/>
</g>
<g style="mix-blend-mode:multiply" opacity="0.3">
<path d="M9.53704 7.38615C9.43216 7.47745 10.1658 9.14094 11.0151 10.0727C11.8644 11.0045 11.5995 10.0198 11.5253 9.77814C11.4512 9.53653 10.452 7.57282 10.4216 7.34051C10.3913 7.1082 9.53704 7.38615 9.53704 7.38615Z" fill="#D42F55"/>
</g>
<g style="mix-blend-mode:multiply" opacity="0.3">
<path d="M8.69864 7.35892C8.63706 7.25226 7.47156 7.53696 7.50594 7.56323C7.54033 7.5895 9.80954 10.3882 10.1444 10.6753C10.4793 10.9624 9.58984 9.262 8.69864 7.35892Z" fill="#D42F55"/>
</g>
<path d="M13.013 8.91914C13.013 8.91914 12.763 8.03341 12.9094 7.54144C12.9357 7.4122 12.992 7.29097 13.0739 7.18759C13.1558 7.08421 13.2609 7.0016 13.3807 6.94646C13.3807 6.94646 13.0159 6.98029 12.8282 7.58061C12.7412 8.03497 12.8061 8.50535 13.013 8.91914Z" fill="#FF6500"/>
<path d="M11.8118 9.36314C11.8118 9.36314 11.0258 7.89516 10.8764 7.54324C10.7271 7.19131 10.6619 7.02521 10.6619 7.02521C10.6619 7.02521 10.5954 7.65555 11.8118 9.36314Z" fill="#FF6500"/>
<path d="M10.7951 4.41885L11.1616 4.56089C11.1616 4.56089 10.9739 4.7884 10.7951 4.41885Z" fill="#E23100"/>
<path d="M9.71078 4.8717C10.0555 4.81548 10.3817 4.67724 10.6619 4.46864C10.5682 4.62952 10.4248 4.75574 10.2534 4.82839C10.0819 4.90105 9.89159 4.91624 9.71078 4.8717Z" fill="#E23100"/>
<path d="M13.9151 4.44346C14.0208 4.53489 14.113 4.64082 14.189 4.75809C14.1935 4.85359 14.1923 4.94928 14.1853 5.04464C14.1853 5.04464 14.2345 4.59728 14.2299 4.56922C14.2252 4.54117 13.9151 4.44346 13.9151 4.44346Z" fill="#97001A"/>
<g style="mix-blend-mode:multiply" opacity="0.8">
<path d="M9.93549 10.7268C9.93549 10.7268 10.4592 11.2278 12.4976 10.1316C14.536 9.03543 14.5164 8.3357 14.5164 8.3357L14.6684 8.73221C14.6684 8.73221 13.2882 10.2094 10.3185 11.2437L9.93549 10.7268Z" fill="#D42F55"/>
</g>
<path opacity="0.5" d="M20.9241 25.5644C17.0848 27.3428 12.698 26.8545 11.3703 22.4245C11.0644 21.4424 10.9772 20.4052 11.1148 19.3857C11.4725 16.8231 13.2311 15.2889 13.3052 14.7848C13.4058 14.1002 12.8557 13.407 12.8557 13.407L15.004 12.2282C15.1695 12.6972 15.4947 13.0932 15.9226 13.3467C16.4083 13.5621 18.8001 12.8384 21.2595 14.109C22.0786 14.5377 22.8069 15.1209 23.4042 15.8265C26.4419 19.3038 24.4807 23.2765 20.9241 25.5644Z" fill="url(#paint4_radial_574_4760)"/>
<path d="M20.9245 25.5642C17.0853 27.3426 12.6984 26.8543 11.3707 22.4243C11.0649 21.4421 10.9777 20.4049 11.1152 19.3855L17.2343 18.3471L21.2566 14.1031C22.0757 14.5317 22.804 15.115 23.4013 15.8205C26.4423 19.3036 24.4811 23.2763 20.9245 25.5642Z" fill="url(#paint5_linear_574_4760)"/>
<g style="mix-blend-mode:multiply" opacity="0.2">
<path d="M11.0746 20.8733C11.1143 19.3975 15.0284 19.8859 18.6477 21.5745C22.267 23.2631 22.3276 20.4454 22.2614 18.2005C22.1953 15.9556 24.1547 20.0286 23.6521 21.9407C23.1495 23.8529 25.4018 20.7307 24.6995 18.1228C23.9971 15.5149 21.2523 14.1094 21.2523 14.1094C21.2523 14.1094 22.6727 15.4378 21.9373 16.4275C21.2018 17.4171 16.2509 18.961 14.1417 19.1756C12.0325 19.3902 11.1093 19.3889 11.1093 19.3889C11.0429 19.8809 11.0313 20.3788 11.0746 20.8733Z" fill="#9A7AFF"/>
</g>
<path d="M11.357 19.0461C9.72176 19.8288 15.0783 19.8995 19.6134 17.9883C24.1485 16.0772 21.6343 14.1656 20.7288 13.8621C19.8232 13.5585 17.4181 15.7504 15.3147 17.0802C14.0494 17.8389 12.726 18.4962 11.357 19.0461Z" fill="url(#paint6_linear_574_4760)"/>
<g style="mix-blend-mode:soft-light" opacity="0.3">
<path d="M14.3951 26.0399C10.6387 22.8622 19.2026 24.4673 21.4166 23.7618C23.6306 23.0562 24.2356 22.0804 24.2356 22.0804C24.2356 22.0804 22.6995 24.9852 19.9425 25.9619C17.1856 26.9387 14.3951 26.0399 14.3951 26.0399Z" fill="white"/>
</g>
<g style="mix-blend-mode:multiply" opacity="0.3">
<path d="M11.8143 23.5672C11.8143 23.5672 15.0983 28.5896 20.7853 25.4715C26.4724 22.3533 24.1872 16.9041 24.1872 16.9041C24.1872 16.9041 27.2679 22.2399 20.9824 25.6729C14.6968 29.1058 11.8143 23.5672 11.8143 23.5672Z" fill="#9A3792"/>
</g>
<path d="M22.4252 25.9159C21.7689 26.0642 23.9817 23.6989 24.8274 21.6886C25.6731 19.6783 26.1962 23.6734 22.4252 25.9159Z" fill="white"/>
<path d="M10.5781 22.0711C11.0621 23.3022 10.941 19.7437 11.0127 18.703C11.0845 17.6622 9.79465 20.075 10.5781 22.0711Z" fill="white"/>
<path d="M11.1261 18.2532C10.9237 18.3355 11.0761 17.5941 11.2495 17.5017C11.4229 17.4092 11.3791 18.1456 11.1261 18.2532Z" fill="white"/>
<path d="M20.9783 13.3755C20.71 13.5765 22.3482 14.4833 23.2327 15.3563C24.1173 16.2293 24.019 15.2137 23.5164 14.5161C23.0137 13.8185 21.4495 13.0266 20.9783 13.3755Z" fill="white"/>
<g style="mix-blend-mode:multiply" opacity="0.5">
<path d="M12.595 15.053C13.291 14.3744 13.1904 15.5049 15.0582 15.0453C16.9261 14.5857 16.6822 13.4043 16.2203 12.7908C16.0857 12.5997 15.9973 12.3801 15.9619 12.149C15.9266 11.918 15.9453 11.6819 16.0166 11.4594C14.7838 12.4777 13.3696 13.2537 11.8485 13.7467C11.8485 13.7467 12.8831 14.0872 12.595 15.053Z" fill="#9A376D"/>
</g>
<path style="mix-blend-mode:screen" d="M15.2991 25.9678C15.2991 25.9678 12.0117 25.5596 11.3991 21.4163C10.9516 18.3577 12.4394 16.5609 12.4394 16.5609C12.4394 16.5609 13.1652 16.0803 14.8333 18.9032C16.5015 21.726 16.6306 25.3182 15.2991 25.9678Z" fill="url(#paint7_linear_574_4760)"/>
<path d="M12.734 19.5884C14.8605 19.5322 16.9659 19.1514 18.9773 18.459C22.5244 17.2798 22.2445 15.6233 22.2445 15.6233C22.2445 15.6233 21.8473 16.8059 19.0943 18.0225C16.3413 19.2391 12.734 19.5884 12.734 19.5884Z" fill="#FF81BF"/>
<g style="mix-blend-mode:soft-light">
<path d="M17.6171 18.8642C17.3218 18.8387 18.6406 18.1273 19.3966 17.9521C20.1526 17.777 19.8013 18.1605 19.5227 18.2637C19.2441 18.3669 17.6171 18.8642 17.6171 18.8642Z" fill="white"/>
</g>
<g style="mix-blend-mode:multiply" opacity="0.2">
<path d="M14.6092 19.4475C13.9617 19.5177 18.2226 21.2856 20.1844 21.9941C22.1462 22.7025 21.953 19.7315 21.9963 18.342C22.0022 17.6235 22.0822 16.9076 22.2349 16.2055C21.4033 17.1177 20.3943 17.8506 19.2698 18.3595C17.5187 19.0745 14.6092 19.4475 14.6092 19.4475Z" fill="#DE0098"/>
</g>
<g style="mix-blend-mode:multiply" opacity="0.5">
<path d="M21.7013 26.7454C16.1478 29.1561 12.692 26.7389 11.1334 23.9528C11.2649 24.1805 14.6179 29.8549 21.4307 26.6096C28.3856 23.2975 24.4651 15.4485 24.4651 15.4485C26.4203 18.1825 27.276 22.9734 21.7013 26.7454Z" fill="#9A376D"/>
</g>
<g style="mix-blend-mode:multiply" opacity="0.2">
<path d="M15.5132 19.7674C12.0605 19.7122 14.1062 22.3901 16.031 23.6003C17.9559 24.8105 16.4898 22.3976 17.5581 21.9845C18.6264 21.5715 19.3509 23.0327 20.8464 23.2263C22.3418 23.4199 19.9759 25.5199 18.7938 24.9571C17.6118 24.3942 18.7385 23.836 18.9389 23.9701C19.1393 24.1042 20.8958 24.124 19.3139 23.1617C17.732 22.1993 17.6605 23.2937 17.5973 24.4026C17.5342 25.5114 15.9582 25.4181 13.5916 23.5558C11.225 21.6936 11.0302 20.038 11.4892 19.7346C11.9482 19.4311 14.4081 19.6175 17.2665 19.0896C20.1249 18.5616 17.6677 20.5568 15.5132 19.7674Z" fill="#DE0098"/>
</g>
<g style="mix-blend-mode:soft-light">
<path d="M18.6354 26.3748C16.4005 26.0855 19.186 24.6656 21.8684 23.7395C24.5508 22.8135 22.2218 25.4035 18.6354 26.3748Z" fill="#FF83FF"/>
</g>
<path d="M17.4611 14.088C16.3653 14.9859 18.5157 16.5271 20.2345 16.7147C21.9533 16.9023 21.1791 14.6627 20.2376 14.057C19.296 13.4514 17.7495 13.8485 17.4611 14.088Z" fill="white"/>
<path d="M13.1027 16.8388C12.7421 16.1477 12.0275 17.5596 12.1956 18.0505C12.3638 18.5415 13.4197 17.4745 13.1027 16.8388Z" fill="white"/>
<g style="mix-blend-mode:soft-light">
<path d="M16.988 12.9814C16.6844 13.2412 18.517 13.0134 19.6282 13.2405C20.7394 13.4676 18.7699 12.3331 16.988 12.9814Z" fill="white"/>
</g>
<g style="mix-blend-mode:soft-light">
<path d="M13.57 25.5828C11.7368 24.631 14.5765 27.6922 17.4893 27.5979C20.4021 27.5036 21.7031 25.7493 21.6987 25.502C21.6943 25.2547 19.4955 26.5126 17.5758 26.7293C15.6561 26.9459 13.57 25.5828 13.57 25.5828Z" fill="#75FFFF"/>
</g>
<g style="mix-blend-mode:multiply" opacity="0.4">
<path d="M22.1206 16.7255C22.3427 16.1087 22.4055 15.4458 22.3032 14.7982C22.3042 14.74 24.4445 16.2102 24.5299 18.1557C24.6154 20.1011 24.3969 20.4617 23.9504 20.0546C23.504 19.6474 22.9044 17.1377 22.2954 17.5009C21.6864 17.864 22.3909 20.5821 21.4811 21.2765C20.5714 21.9709 19.7994 20.4141 19.9984 19.3075C20.1974 18.201 20.6148 19.5897 21.0044 18.9996C21.394 18.4095 21.0702 17.6356 18.9118 18.6703C16.7534 19.7051 18.5332 20.8107 19.0086 19.8367C19.4841 18.8627 19.8489 21.4386 19.579 21.6367C19.309 21.8349 18.4045 21.3001 16.319 20.444C14.2335 19.5879 13.732 19.9044 13.5739 20.8221C13.4157 21.7397 15.9935 23.3686 15.2546 23.8797C14.5158 24.3908 12.7795 23.141 11.941 21.6687C11.1025 20.1964 11.0408 20.0629 11.3283 19.8085C11.6157 19.5542 15.4452 19.8493 18.3552 18.665C21.2652 17.4807 22.1206 16.7255 22.1206 16.7255Z" fill="#DE0098"/>
</g>
<path d="M12.6257 23.1753C11.8508 23.0846 12.6067 24.4738 13.1114 24.6091C13.6162 24.7443 13.3461 23.2513 12.6257 23.1753Z" fill="white"/>
<g style="mix-blend-mode:soft-light" opacity="0.6">
<path d="M17.5612 12.9889C17.3023 13.246 17.6698 13.3567 17.9062 13.4931C18.1425 13.6296 18.2259 13.2547 18.0453 13.0284C17.8647 12.8022 17.5612 12.9889 17.5612 12.9889Z" fill="#FFB192"/>
</g>
<defs>
<linearGradient id="paint0_linear_574_4760" x1="21.7005" y1="26.7403" x2="13.9288" y2="12.5978" gradientUnits="userSpaceOnUse">
<stop stop-color="#E8E5ED"/>
<stop offset="0.05" stop-color="#E5DDEA"/>
<stop offset="0.28" stop-color="#DABBDC"/>
<stop offset="0.46" stop-color="#D3A7D4"/>
<stop offset="0.59" stop-color="#D19FD1"/>
<stop offset="0.64" stop-color="#BE92C3"/>
<stop offset="0.72" stop-color="#A57FB0"/>
<stop offset="0.81" stop-color="#9272A3"/>
<stop offset="0.9" stop-color="#886B9B"/>
<stop offset="1" stop-color="#846898"/>
</linearGradient>
<linearGradient id="paint1_linear_574_4760" x1="9.44157" y1="13.3013" x2="16.7083" y2="9.30804" gradientUnits="userSpaceOnUse">
<stop stop-color="#9082A9"/>
<stop offset="0.22" stop-color="#9386AB"/>
<stop offset="0.42" stop-color="#9D90B3"/>
<stop offset="0.6" stop-color="#ADA3C0"/>
<stop offset="0.79" stop-color="#C4BCD1"/>
<stop offset="0.96" stop-color="#E1DDE8"/>
<stop offset="1" stop-color="#E8E5ED"/>
</linearGradient>
<linearGradient id="paint2_linear_574_4760" x1="11.0975" y1="12.6576" x2="15.3887" y2="10.2995" gradientUnits="userSpaceOnUse">
<stop stop-color="#A71100"/>
<stop offset="0.39" stop-color="#D83303"/>
<stop offset="1" stop-color="#EC5C11"/>
</linearGradient>
<linearGradient id="paint3_linear_574_4760" x1="8.2" y1="9.33453" x2="14.8745" y2="5.66669" gradientUnits="userSpaceOnUse">
<stop stop-color="#A71100"/>
<stop offset="0.39" stop-color="#D83303"/>
<stop offset="1" stop-color="#EC5C11"/>
</linearGradient>
<radialGradient id="paint4_radial_574_4760" cx="0" cy="0" r="1" gradientUnits="userSpaceOnUse" gradientTransform="translate(18.2682 20.6466) rotate(-28.79) scale(7.60595 7.60595)">
<stop stop-color="#E8E5ED"/>
<stop offset="0.14" stop-color="#E3DDE3"/>
<stop offset="0.42" stop-color="#DBD1D5"/>
<stop offset="0.66" stop-color="#D8CDD0"/>
<stop offset="0.68" stop-color="#D4C5CE"/>
<stop offset="0.75" stop-color="#C7ACC9"/>
<stop offset="0.83" stop-color="#BE99C5"/>
<stop offset="0.91" stop-color="#B98FC3"/>
<stop offset="1" stop-color="#B78BC2"/>
</radialGradient>
<linearGradient id="paint5_linear_574_4760" x1="20.9204" y1="25.5548" x2="16.0407" y2="16.6749" gradientUnits="userSpaceOnUse">
<stop stop-color="#FF8D7E"/>
<stop offset="0.32" stop-color="#FF131A"/>
<stop offset="1" stop-color="#C50042"/>
</linearGradient>
<linearGradient id="paint6_linear_574_4760" x1="11.6763" y1="20.4558" x2="21.9827" y2="14.7921" gradientUnits="userSpaceOnUse">
<stop stop-color="#FF6154"/>
<stop offset="1" stop-color="#FF5B9D"/>
</linearGradient>
<linearGradient id="paint7_linear_574_4760" x1="11.5293" y1="22.5458" x2="15.6192" y2="20.2982" gradientUnits="userSpaceOnUse">
<stop offset="0.02" stop-color="#008DFE"/>
<stop offset="1"/>
</linearGradient>
</defs>
</svg>
